<mxfile host="app.diagrams.net" agent="Mozilla/5.0 (Macintosh; Intel Mac OS X 10.15; rv:141.0) Gecko/20100101 Firefox/141.0" version="28.0.7">
  <diagram name="Page-1" id="YBwsehX8Ca7GOg6mXMed">
    <mxGraphModel dx="2226" dy="799" grid="1" gridSize="10" guides="1" tooltips="1" connect="1" arrows="1" fold="1" page="1" pageScale="1" pageWidth="850" pageHeight="1100" math="0" shadow="0">
      <root>
        <mxCell id="0" />
        <mxCell id="1" parent="0" />
        <mxCell id="0NXyYPoDUqEpvLnktqrX-9" value="&lt;div&gt;Stretch goals&lt;/div&gt;" style="rounded=0;whiteSpace=wrap;html=1;fillColor=#dae8fc;strokeColor=#6c8ebf;fontStyle=1;verticalAlign=bottom;fontSize=22;" parent="1" vertex="1">
          <mxGeometry x="90" y="220" width="720" height="160" as="geometry" />
        </mxCell>
        <mxCell id="0NXyYPoDUqEpvLnktqrX-1" value="MVP" style="rounded=0;whiteSpace=wrap;html=1;fillColor=#d5e8d4;strokeColor=#82b366;fontStyle=1;fontSize=22;verticalAlign=top;" parent="1" vertex="1">
          <mxGeometry x="90" y="20" width="720" height="200" as="geometry" />
        </mxCell>
        <mxCell id="0NXyYPoDUqEpvLnktqrX-4" value="" style="edgeStyle=orthogonalEdgeStyle;rounded=0;orthogonalLoop=1;jettySize=auto;html=1;" parent="1" source="0NXyYPoDUqEpvLnktqrX-2" target="0NXyYPoDUqEpvLnktqrX-3" edge="1">
          <mxGeometry relative="1" as="geometry" />
        </mxCell>
        <mxCell id="0NXyYPoDUqEpvLnktqrX-14" style="edgeStyle=orthogonalEdgeStyle;rounded=0;orthogonalLoop=1;jettySize=auto;html=1;" parent="1" source="0NXyYPoDUqEpvLnktqrX-2" target="0NXyYPoDUqEpvLnktqrX-13" edge="1">
          <mxGeometry relative="1" as="geometry" />
        </mxCell>
        <mxCell id="0NXyYPoDUqEpvLnktqrX-2" value="Chatbot is minimised to an icon on a website" style="rounded=1;whiteSpace=wrap;html=1;" parent="1" vertex="1">
          <mxGeometry x="120" y="90" width="120" height="60" as="geometry" />
        </mxCell>
        <mxCell id="0NXyYPoDUqEpvLnktqrX-6" value="" style="edgeStyle=orthogonalEdgeStyle;rounded=0;orthogonalLoop=1;jettySize=auto;html=1;" parent="1" source="0NXyYPoDUqEpvLnktqrX-3" target="0NXyYPoDUqEpvLnktqrX-5" edge="1">
          <mxGeometry relative="1" as="geometry" />
        </mxCell>
        <mxCell id="0NXyYPoDUqEpvLnktqrX-8" value="" style="edgeStyle=orthogonalEdgeStyle;rounded=0;orthogonalLoop=1;jettySize=auto;html=1;" parent="1" source="0NXyYPoDUqEpvLnktqrX-3" target="0NXyYPoDUqEpvLnktqrX-7" edge="1">
          <mxGeometry relative="1" as="geometry" />
        </mxCell>
        <mxCell id="0NXyYPoDUqEpvLnktqrX-3" value="Chatbot is pre-loaded with information about a person" style="whiteSpace=wrap;html=1;rounded=1;" parent="1" vertex="1">
          <mxGeometry x="320" y="90" width="120" height="60" as="geometry" />
        </mxCell>
        <mxCell id="0NXyYPoDUqEpvLnktqrX-11" value="" style="edgeStyle=orthogonalEdgeStyle;rounded=0;orthogonalLoop=1;jettySize=auto;html=1;" parent="1" source="0NXyYPoDUqEpvLnktqrX-5" target="0NXyYPoDUqEpvLnktqrX-10" edge="1">
          <mxGeometry relative="1" as="geometry" />
        </mxCell>
        <mxCell id="0NXyYPoDUqEpvLnktqrX-5" value="Visitors to the site can ask questions about the person which chatbot will answer" style="whiteSpace=wrap;html=1;rounded=1;" parent="1" vertex="1">
          <mxGeometry x="490" y="90" width="120" height="60" as="geometry" />
        </mxCell>
        <mxCell id="0NXyYPoDUqEpvLnktqrX-7" value="Information can be updated easily at anytime" style="whiteSpace=wrap;html=1;rounded=1;" parent="1" vertex="1">
          <mxGeometry x="320" y="250" width="120" height="60" as="geometry" />
        </mxCell>
        <mxCell id="0NXyYPoDUqEpvLnktqrX-10" value="User should be able to ask multiple questions in a row and the chatbot should keep the context of previous questions when answering" style="whiteSpace=wrap;html=1;rounded=1;" parent="1" vertex="1">
          <mxGeometry x="660" y="50" width="120" height="140" as="geometry" />
        </mxCell>
        <mxCell id="0NXyYPoDUqEpvLnktqrX-13" value="Chatbot can be installed on any website" style="rounded=1;whiteSpace=wrap;html=1;" parent="1" vertex="1">
          <mxGeometry x="120" y="250" width="120" height="60" as="geometry" />
        </mxCell>
        <mxCell id="0NXyYPoDUqEpvLnktqrX-15" value="" style="rounded=0;whiteSpace=wrap;html=1;" parent="1" vertex="1">
          <mxGeometry x="90" y="880" width="700" height="360" as="geometry" />
        </mxCell>
        <mxCell id="0NXyYPoDUqEpvLnktqrX-16" value="" style="ellipse;whiteSpace=wrap;html=1;aspect=fixed;" parent="1" vertex="1">
          <mxGeometry x="110" y="1190" width="30" height="30" as="geometry" />
        </mxCell>
        <mxCell id="0NXyYPoDUqEpvLnktqrX-18" value="Click to start chatting" style="whiteSpace=wrap;html=1;shape=mxgraph.basic.oval_callout" parent="1" vertex="1">
          <mxGeometry x="130" y="1120" width="100" height="60" as="geometry" />
        </mxCell>
        <mxCell id="0NXyYPoDUqEpvLnktqrX-19" value="" style="rounded=0;whiteSpace=wrap;html=1;" parent="1" vertex="1">
          <mxGeometry x="90" y="1320" width="700" height="360" as="geometry" />
        </mxCell>
        <mxCell id="0NXyYPoDUqEpvLnktqrX-22" value="" style="rounded=1;whiteSpace=wrap;html=1;" parent="1" vertex="1">
          <mxGeometry x="120" y="1400" width="180" height="260" as="geometry" />
        </mxCell>
        <mxCell id="0NXyYPoDUqEpvLnktqrX-23" value="Type your question here..." style="rounded=1;whiteSpace=wrap;html=1;align=left;" parent="1" vertex="1">
          <mxGeometry x="130" y="1620" width="160" height="30" as="geometry" />
        </mxCell>
        <mxCell id="0NXyYPoDUqEpvLnktqrX-24" value="Hi there! Would you like to ask a question about Dave?" style="rounded=1;whiteSpace=wrap;html=1;align=left;" parent="1" vertex="1">
          <mxGeometry x="130" y="1420" width="130" height="50" as="geometry" />
        </mxCell>
        <mxCell id="0NXyYPoDUqEpvLnktqrX-25" value="What experience does Dave have with React?" style="rounded=1;whiteSpace=wrap;html=1;align=left;" parent="1" vertex="1">
          <mxGeometry x="170" y="1490" width="120" height="50" as="geometry" />
        </mxCell>
        <mxCell id="0NXyYPoDUqEpvLnktqrX-26" value="" style="shape=image;html=1;verticalAlign=top;verticalLabelPosition=bottom;labelBackgroundColor=#ffffff;imageAspect=0;image=https://icons.diagrams.net/icon-cache1/Essential_Web_4-2054/commenting-more-typing-chat-review-899.svg" parent="1" vertex="1">
          <mxGeometry x="130" y="1550" width="40" height="30" as="geometry" />
        </mxCell>
        <mxCell id="0NXyYPoDUqEpvLnktqrX-27" value="" style="shape=image;html=1;verticalAlign=top;verticalLabelPosition=bottom;labelBackgroundColor=#ffffff;imageAspect=0;aspect=fixed;image=https://icons.diagrams.net/icon-cache1/Evil_Icons_User_Interface-2617/close2-576.svg" parent="1" vertex="1">
          <mxGeometry x="270" y="1410" width="20" height="20" as="geometry" />
        </mxCell>
        <mxCell id="0NXyYPoDUqEpvLnktqrX-30" style="rounded=0;orthogonalLoop=1;jettySize=auto;html=1;" parent="1" source="0NXyYPoDUqEpvLnktqrX-28" target="0NXyYPoDUqEpvLnktqrX-25" edge="1">
          <mxGeometry relative="1" as="geometry" />
        </mxCell>
        <mxCell id="0NXyYPoDUqEpvLnktqrX-28" value="&lt;div&gt;History of chats to persist across sessions?&lt;/div&gt;&lt;div&gt;&lt;br&gt;&lt;/div&gt;&lt;div&gt;Persist in localStorage but have an expiry?&lt;/div&gt;" style="text;html=1;align=center;verticalAlign=middle;whiteSpace=wrap;rounded=0;fillColor=none;fontColor=#FF3333;" parent="1" vertex="1">
          <mxGeometry x="360" y="1430" width="150" height="80" as="geometry" />
        </mxCell>
        <mxCell id="k0ortePwFJx2ZGjpDfek-1" value="&lt;b&gt;Data flow&lt;/b&gt;" style="rounded=0;whiteSpace=wrap;html=1;fillColor=#e1d5e7;strokeColor=#9673a6;fontSize=22;verticalAlign=top;" vertex="1" parent="1">
          <mxGeometry x="-20" y="430" width="920" height="370" as="geometry" />
        </mxCell>
        <mxCell id="k0ortePwFJx2ZGjpDfek-4" value="" style="edgeStyle=orthogonalEdgeStyle;rounded=0;orthogonalLoop=1;jettySize=auto;html=1;" edge="1" parent="1" source="k0ortePwFJx2ZGjpDfek-2" target="k0ortePwFJx2ZGjpDfek-3">
          <mxGeometry relative="1" as="geometry" />
        </mxCell>
        <mxCell id="k0ortePwFJx2ZGjpDfek-2" value="User opens the chat" style="rounded=1;whiteSpace=wrap;html=1;" vertex="1" parent="1">
          <mxGeometry x="-10" y="585" width="70" height="60" as="geometry" />
        </mxCell>
        <mxCell id="k0ortePwFJx2ZGjpDfek-6" value="" style="edgeStyle=orthogonalEdgeStyle;rounded=0;orthogonalLoop=1;jettySize=auto;html=1;" edge="1" parent="1" source="k0ortePwFJx2ZGjpDfek-3" target="k0ortePwFJx2ZGjpDfek-5">
          <mxGeometry relative="1" as="geometry">
            <Array as="points">
              <mxPoint x="240" y="615" />
              <mxPoint x="240" y="520" />
            </Array>
          </mxGeometry>
        </mxCell>
        <mxCell id="k0ortePwFJx2ZGjpDfek-21" value="Yes" style="edgeLabel;html=1;align=center;verticalAlign=middle;resizable=0;points=[];" vertex="1" connectable="0" parent="k0ortePwFJx2ZGjpDfek-6">
          <mxGeometry x="-0.1429" relative="1" as="geometry">
            <mxPoint as="offset" />
          </mxGeometry>
        </mxCell>
        <mxCell id="k0ortePwFJx2ZGjpDfek-13" style="edgeStyle=orthogonalEdgeStyle;rounded=0;orthogonalLoop=1;jettySize=auto;html=1;entryX=0;entryY=0.5;entryDx=0;entryDy=0;" edge="1" parent="1" source="k0ortePwFJx2ZGjpDfek-3" target="k0ortePwFJx2ZGjpDfek-7">
          <mxGeometry relative="1" as="geometry">
            <Array as="points">
              <mxPoint x="240" y="615" />
              <mxPoint x="240" y="730" />
            </Array>
          </mxGeometry>
        </mxCell>
        <mxCell id="k0ortePwFJx2ZGjpDfek-20" value="No" style="edgeLabel;html=1;align=center;verticalAlign=middle;resizable=0;points=[];" vertex="1" connectable="0" parent="k0ortePwFJx2ZGjpDfek-13">
          <mxGeometry x="-0.0493" relative="1" as="geometry">
            <mxPoint as="offset" />
          </mxGeometry>
        </mxCell>
        <mxCell id="k0ortePwFJx2ZGjpDfek-3" value="Is there a previous, unexpired chat stored in localStorage?" style="rhombus;whiteSpace=wrap;html=1;rounded=1;" vertex="1" parent="1">
          <mxGeometry x="90" y="560" width="120" height="110" as="geometry" />
        </mxCell>
        <mxCell id="k0ortePwFJx2ZGjpDfek-15" style="edgeStyle=orthogonalEdgeStyle;rounded=0;orthogonalLoop=1;jettySize=auto;html=1;exitX=1;exitY=0.5;exitDx=0;exitDy=0;entryX=0.5;entryY=0;entryDx=0;entryDy=0;" edge="1" parent="1" source="k0ortePwFJx2ZGjpDfek-5" target="k0ortePwFJx2ZGjpDfek-9">
          <mxGeometry relative="1" as="geometry" />
        </mxCell>
        <mxCell id="k0ortePwFJx2ZGjpDfek-5" value="Use Response Object ID to call OpenAI API responses.retrieve OR responses.inputItems.list to retrieve previous messages" style="whiteSpace=wrap;html=1;rounded=1;" vertex="1" parent="1">
          <mxGeometry x="267.5" y="460" width="142.5" height="140" as="geometry" />
        </mxCell>
        <mxCell id="k0ortePwFJx2ZGjpDfek-14" style="edgeStyle=orthogonalEdgeStyle;rounded=0;orthogonalLoop=1;jettySize=auto;html=1;" edge="1" parent="1" source="k0ortePwFJx2ZGjpDfek-7" target="k0ortePwFJx2ZGjpDfek-9">
          <mxGeometry relative="1" as="geometry" />
        </mxCell>
        <mxCell id="k0ortePwFJx2ZGjpDfek-7" value="Start new chat" style="whiteSpace=wrap;html=1;rounded=1;" vertex="1" parent="1">
          <mxGeometry x="265" y="700" width="65" height="60" as="geometry" />
        </mxCell>
        <mxCell id="k0ortePwFJx2ZGjpDfek-11" value="" style="edgeStyle=orthogonalEdgeStyle;rounded=0;orthogonalLoop=1;jettySize=auto;html=1;entryX=0;entryY=0.5;entryDx=0;entryDy=0;" edge="1" parent="1" source="k0ortePwFJx2ZGjpDfek-9" target="k0ortePwFJx2ZGjpDfek-10">
          <mxGeometry relative="1" as="geometry" />
        </mxCell>
        <mxCell id="k0ortePwFJx2ZGjpDfek-9" value="User asks question" style="rounded=1;whiteSpace=wrap;html=1;" vertex="1" parent="1">
          <mxGeometry x="430" y="585" width="120" height="60" as="geometry" />
        </mxCell>
        <mxCell id="k0ortePwFJx2ZGjpDfek-17" value="" style="edgeStyle=orthogonalEdgeStyle;rounded=0;orthogonalLoop=1;jettySize=auto;html=1;" edge="1" parent="1" source="k0ortePwFJx2ZGjpDfek-10" target="k0ortePwFJx2ZGjpDfek-16">
          <mxGeometry relative="1" as="geometry" />
        </mxCell>
        <mxCell id="k0ortePwFJx2ZGjpDfek-10" value="Call to OpenAI API responses.create (including previous_response_id for context if it exists)" style="whiteSpace=wrap;html=1;rounded=1;" vertex="1" parent="1">
          <mxGeometry x="580" y="540" width="130" height="115" as="geometry" />
        </mxCell>
        <mxCell id="k0ortePwFJx2ZGjpDfek-16" value="Response ID is stored as latest conversation in localStorage, (replacing previous ID if it exists)" style="whiteSpace=wrap;html=1;rounded=1;" vertex="1" parent="1">
          <mxGeometry x="750" y="532.5" width="130" height="130" as="geometry" />
        </mxCell>
      </root>
    </mxGraphModel>
  </diagram>
</mxfile>
